0.16m3min_grf.mot
version=1
nRows=12
nColumns 19
inDegrees=yes
endheader
time	1_ground_force_vx	1_ground_force_vy	1_ground_force_vz	1_ground_force_px	1_ground_force_py	1_ground_force_pz	1_ground_torque_x	1_ground_torque_y	1_ground_torque_z	2_ground_force_vx	2_ground_force_vy	2_ground_force_vz	2_ground_force_px	2_ground_force_py	2_ground_force_pz	2_ground_torque_x	2_ground_torque_y	2_ground_torque_z
            2.502500	            3.943190	          494.347924	          -53.606601	           -0.254864	            0.006065	           -0.369307	           -0.004619	           -0.579089	            0.062796	           10.523518	          399.490167	           44.829232	           -0.284919	            0.005603	           -0.739195	            0.018883	            0.716816	            0.080438
            2.503000	            4.313377	          488.575364	          -52.669268	           -0.254614	            0.006063	           -0.368883	           -0.004817	           -0.545662	            0.058823	           10.922538	          392.681083	           43.960056	           -0.285415	            0.005601	           -0.739032	            0.021389	            0.768964	            0.086084
            2.503500	            4.775107	          481.721818	          -51.874372	           -0.254313	            0.006065	           -0.369261	           -0.004658	           -0.469933	            0.050605	           11.510410	          385.503329	           43.371054	           -0.285466	            0.005600	           -0.738828	            0.021840	            0.731470	            0.082294
            2.504000	            5.236054	          475.410218	          -51.352293	           -0.254417	            0.006064	           -0.369187	           -0.004465	           -0.405437	            0.043794	           11.805782	          381.455911	           42.558702	           -0.285375	            0.005602	           -0.739251	            0.021368	            0.690411	            0.077029
            2.504500	            5.193541	          469.637776	          -50.459795	           -0.254460	            0.006063	           -0.368910	           -0.005463	           -0.493970	            0.053074	           12.151347	          376.487791	           41.789972	           -0.285576	            0.005602	           -0.739548	            0.022438	            0.695215	            0.077169
            2.505000	            5.792261	          463.866440	          -49.798174	           -0.254488	            0.006064	           -0.369053	           -0.007321	           -0.586272	            0.062939	           12.316803	          369.493492	           40.967166	           -0.285368	            0.005601	           -0.739135	            0.023924	            0.717691	            0.079573
            2.505500	            6.208879	          457.372041	          -48.680623	           -0.254387	            0.006063	           -0.368884	           -0.008486	           -0.625093	            0.066532	           12.524456	          363.788409	           40.148940	           -0.285773	            0.005601	           -0.739410	            0.023195	            0.673716	            0.074354
            2.506000	            6.395682	          449.797379	          -47.888137	           -0.254470	            0.006063	           -0.368970	           -0.008641	           -0.607681	            0.064697	           12.260410	          359.001394	           39.615767	           -0.285604	            0.005602	           -0.739667	            0.024227	            0.709399	            0.078282
            2.506500	            7.405850	          444.028089	          -47.686099	           -0.254440	            0.006063	           -0.368989	           -0.007549	           -0.452604	            0.048607	           12.465344	          354.033375	           38.659384	           -0.285249	            0.005603	           -0.739560	            0.026869	            0.763105	            0.083329
            2.507000	            7.317817	          438.975914	          -46.606972	           -0.254457	            0.006062	           -0.368693	           -0.006280	           -0.376721	            0.039997	           12.908075	          348.143657	           38.215826	           -0.285438	            0.005602	           -0.739476	            0.027700	            0.747088	            0.082008
            2.507500	            7.641904	          432.122538	          -45.857587	           -0.254677	            0.006062	           -0.368595	           -0.006953	           -0.393181	            0.041725	           13.070852	          341.886149	           37.348721	           -0.285701	            0.005601	           -0.739449	            0.029396	            0.768903	            0.083997
            2.508000	            7.965257	          426.171504	          -45.333620	           -0.254524	            0.006062	           -0.368677	           -0.008911	           -0.476755	            0.050714	           13.322032	          337.101999	           36.533760	           -0.285662	            0.005602	           -0.739619	            0.028736	            0.727142	            0.078805
